<svg id="Layer_1" data-name="Layer 1" xmlns="http://www.w3.org/2000/svg" viewBox="0 0 262.86 263.67"><defs><style>.cls-1{fill:none;}.cls-1,.cls-2{stroke:#fd6c01;stroke-miterlimit:10;}.cls-2{fill:#fd6c01;}</style></defs><title>Bildterapihuset_logga</title><path class="cls-1" d="M210.95,91.68c1.42-2.68,1.29-5.47-.34-6.79l-1.66-1.35c-1.62-1.32-4.38-.88-6.71,1.07l-23.48,19.61a.5.5,0,0,0,0,.78l17.07,13.86a.5.5,0,0,0,.76-.15Z"/><path class="cls-1" d="M174.36,108.5l-1.85,2.28c-.11.13,0,.38.2.55l18.39,14.93c.22.18.48.21.58.08l1.85-2.28c.11-.13,0-.38-.2-.55l-18.39-14.93C174.73,108.41,174.47,108.37,174.36,108.5Z"/><path class="cls-1" d="M92.84,247.84h0a.5.5,0,0,0-.07-.71L74.38,232.21a.5.5,0,0,0-.71.07l-3.08,3.79a.5.5,0,0,0,.07.71l9.71,7.88a.51.51,0,0,0,.14.08A55.42,55.42,0,0,0,92.38,248,.51.51,0,0,0,92.84,247.84Z"/><rect class="cls-1" x="62.72" y="168.77" width="139.91" height="21.42" rx="0.5" ry="0.5" transform="translate(-90.29 169.37) rotate(-50.93)"/><path class="cls-1" d="M168.86,113.88l-.2.24L76.23,228a.5.5,0,0,0,.07.71L96.38,245l.12.1,92.75-114.25.2-.24ZM80.59,226.65l87.55-107.84a.5.5,0,0,1,.71-.07L184.7,131.6a.5.5,0,0,1,.07.71L97.22,240.16a.5.5,0,0,1-.71.07L80.66,227.36A.5.5,0,0,1,80.59,226.65Z"/><path class="cls-1" d="M174.85,88.34c1.42-2.68,1.29-5.47-.34-6.79l-1.66-1.35c-1.62-1.32-4.38-.88-6.71,1.07l-24,20,18,14.63Z"/><rect class="cls-1" x="145.3" y="101.24" width="3.33" height="24.69" transform="translate(-33.84 156.09) rotate(-50.93)"/><path class="cls-1" d="M60.16,231.13c1.28.74,2.59,1.42,3.92,2L149,128.58l-16.63-13.5L47.22,220C51.55,223.63,55.2,228.25,60.16,231.13Z"/><path class="cls-1" d="M132.76,110.54l-.2.24L45.22,218.37c.69.5,1.35,1,2,1.58l85.14-104.87L149,128.58,64.08,233.18c.79.38,1.6.74,2.4,1.09L153.16,127.5l.2-.24Z"/><path class="cls-1" d="M214.46,135.09c1.42-2.68,1.29-5.47-.34-6.79L212.46,127c-1.62-1.32-4.38-.88-6.71,1.07l-24,20,18,14.63Z"/><rect class="cls-1" x="185.4" y="148.14" width="3.13" height="24.69" transform="translate(-55.47 204.49) rotate(-50.93)"/><path class="cls-1" d="M124.27,254.51h.06l64.28-79.18L172,161.83l-71.53,88.11c.94.31,1.87.66,2.8,1C110.32,251.87,117.46,252.62,124.27,254.51Z"/><path class="cls-1" d="M172.38,157.29l-.2.24L97,250.1q1.46.23,2.93.44l72-88.7,16.63,13.5-64.29,79.19q1.33.37,2.63.8l65.82-81.08.2-.24Z"/><path class="cls-2" d="M101.85,51.28l1.75,1.4a12.43,12.43,0,0,1,4.52,6.55,7,7,0,0,1-1.25,6.48A7.22,7.22,0,0,1,102.79,68a7.84,7.84,0,0,1-5-.24,17,17,0,0,1,4.09,9.2,12.12,12.12,0,0,1-2.81,9.21q-3.37,4.21-9.84,4.13a19.49,19.49,0,0,1-12.14-4.62l-1.75-1.4ZM93.33,65.5l-15.21,19,.44.35A15.77,15.77,0,0,0,88.92,88.5,10.61,10.61,0,0,0,99.66,75.15a15.81,15.81,0,0,0-5.89-9.31Zm9.28-11.59-8.33,10.4.44.35a8.29,8.29,0,0,0,5.62,1.86,6.12,6.12,0,0,0,4.85-2.19,5.75,5.75,0,0,0,1-5.08,8.63,8.63,0,0,0-3.16-5Z"/><path class="cls-2" d="M137.25,79.62l-1,1.28-9.33-7.47L101.47,105.2l-1.8-1.44L125.1,72l-9.44-7.56,1-1.28Z"/><path class="cls-2" d="M94.74,110.63l1.47,1.18-26.46,33-1.47-1.18,10.09-12.6L55.45,112.72l-10.09,12.6-1.47-1.18,26.46-33,1.47,1.18L56.47,111.44,79.4,129.8Z"/><circle class="cls-1" cx="132.36" cy="137.05" r="118.68"/><circle class="cls-1" cx="132.36" cy="137.05" r="116.12"/></svg>