<svg id="Layer_1" data-name="Layer 1" xmlns="http://www.w3.org/2000/svg" viewBox="0 0 295.97 295.97"><defs><style>.cls-1{fill:#fd6c01;}.cls-2,.cls-3{fill:#fff;}.cls-3{stroke:#fff;stroke-miterlimit:10;stroke-width:2px;}</style></defs><title>logga2</title><circle class="cls-1" cx="147.97" cy="147.82" r="116.78"/><path class="cls-2" d="M226.63,106.26c1.4-2.64,1.27-5.38-.33-6.68l-1.64-1.33c-1.6-1.3-4.31-.87-6.61,1L195,118.59a.5.5,0,0,0,0,.76L211.75,133a.5.5,0,0,0,.75-.15Z"/><path class="cls-2" d="M190.63,122.82l-1.82,2.25c-.1.13,0,.37.2.54L207.1,140.3c.21.17.47.21.57.08l1.82-2.25c.1-.13,0-.37-.2-.54L191.2,122.9C191,122.72,190.73,122.69,190.63,122.82Z"/><path class="cls-2" d="M110.4,259.95h0a.5.5,0,0,0-.07-.7L92.23,244.56a.5.5,0,0,0-.7.07l-3,3.73a.5.5,0,0,0,.07.7l9.56,7.76.14.08a54.54,54.54,0,0,0,11.66,3.23A.5.5,0,0,0,110.4,259.95Z"/><rect class="cls-1" x="80.76" y="182.13" width="137.69" height="21.08" rx="0.5" ry="0.5" transform="translate(-94.27 187.39) rotate(-50.93)"/><path class="cls-2" d="M185.22,128.1l-.2.24-91,112.06a.5.5,0,0,0,.07.7l19.76,16,.12.09L205.29,144.8l.2-.24Zm-86.87,111L184.51,133a.5.5,0,0,1,.7-.07l15.6,12.66a.5.5,0,0,1,.07.7L114.71,252.38a.5.5,0,0,1-.7.07l-15.6-12.66A.5.5,0,0,1,98.35,239.09Z"/><path class="cls-2" d="M191.11,103c1.4-2.64,1.27-5.38-.33-6.68L189.14,95c-1.6-1.3-4.31-.87-6.61,1L159,115.69l17.73,14.39Z"/><rect class="cls-2" x="162.03" y="115.67" width="3.27" height="24.3" transform="translate(-38.72 174.32) rotate(-50.93)"/><path class="cls-1" d="M78.24,243.5c1.26.73,2.55,1.39,3.86,2l83.56-102.93-16.37-13.29L65.5,232.5C69.77,236.12,73.36,240.66,78.24,243.5Z"/><path class="cls-2" d="M149.69,124.82l-.2.24-86,105.89c.68.49,1.33,1,2,1.56l83.79-103.21,16.37,13.29L82.1,245.51c.78.37,1.57.72,2.36,1.07l85.3-105.07.2-.24Z"/><path class="cls-2" d="M230.09,149c1.4-2.64,1.27-5.38-.33-6.68L228.12,141c-1.6-1.3-4.31-.87-6.61,1L197.95,161.7l17.73,14.39Z"/><rect class="cls-2" x="201.49" y="161.83" width="3.08" height="24.3" transform="translate(-60.01 221.95) rotate(-50.93)"/><path class="cls-1" d="M141.33,266.51h.06l63.26-77.92L188.28,175.3,117.88,262c.92.31,1.84.65,2.75,1C127.6,263.91,134.63,264.65,141.33,266.51Z"/><path class="cls-2" d="M188.68,170.83l-.2.24-74,91.1q1.44.23,2.88.43l70.87-87.29,16.37,13.29-63.27,77.93q1.3.36,2.59.79l64.78-79.79.2-.24Z"/><path class="cls-3" d="M119.27,66.5,121,67.88a12.21,12.21,0,0,1,4.44,6.44,6.88,6.88,0,0,1-1.23,6.38,7.1,7.1,0,0,1-4,2.31,7.72,7.72,0,0,1-4.87-.24,16.79,16.79,0,0,1,4,9.06,11.93,11.93,0,0,1-2.77,9.06q-3.32,4.14-9.68,4.06a19.18,19.18,0,0,1-11.95-4.55L93.23,99Zm-8.39,14-15,18.69.43.34a15.51,15.51,0,0,0,10.19,3.61A10.44,10.44,0,0,0,117.11,90a15.56,15.56,0,0,0-5.79-9.16ZM120,69.09l-8.19,10.23.43.34a8.16,8.16,0,0,0,5.53,1.83,6,6,0,0,0,4.77-2.16,5.66,5.66,0,0,0,1-5,8.5,8.5,0,0,0-3.11-4.91Z"/><path class="cls-3" d="M154.11,94.4l-1,1.26-9.18-7.35-25,31.26-1.77-1.42,25-31.26-9.29-7.44,1-1.26Z"/><path class="cls-3" d="M112.27,124.91l1.45,1.16-26,32.52-1.45-1.16L96.16,145,73.6,127l-9.93,12.4-1.45-1.16,26-32.52,1.45,1.16L74.61,125.7l22.56,18.07Z"/></svg>